<?xml version="1.0" encoding="iso-8859-1"?>
<!-- Generator: Adobe Illustrator 21.1.0, SVG Export Plug-In . SVG Version: 6.00 Build 0)  -->
<svg version="1.1" id="Layer_1" xmlns="http://www.w3.org/2000/svg" xmlns:xlink="http://www.w3.org/1999/xlink" x="0px" y="0px"
	 viewBox="0 0 100.75 100.75" style="enable-background:new 0 0 100.75 100.75;" xml:space="preserve">
<g>
	<path d="M12.356,77.606c-0.803,0-1.453,0.65-1.453,1.453s0.65,1.453,1.453,1.453h74.755c0.803,0,1.453-0.65,1.453-1.453
		s-0.65-1.453-1.453-1.453h-8.109V34.718h8.109c0.803,0,1.453-0.65,1.453-1.453s-0.65-1.453-1.453-1.453h-66.43
		c-0.13-0.038-0.264-0.065-0.406-0.065s-0.277,0.027-0.406,0.065h-7.513c-0.803,0-1.453,0.65-1.453,1.453s0.65,1.453,1.453,1.453
		h6.472v42.888H12.356z M41.406,77.606V34.718h16.056v42.888H41.406z M76.096,77.606H60.368V34.718h15.728V77.606z M21.722,34.718
		H38.5v42.888H21.722V34.718z"/>
	<path d="M95.922,89.44H3.545c-0.803,0-1.453,0.65-1.453,1.453s0.65,1.453,1.453,1.453h92.377c0.803,0,1.453-0.65,1.453-1.453
		S96.725,89.44,95.922,89.44z"/>
	<path d="M97.176,31.8L50.987,5.408c-0.445-0.254-0.993-0.255-1.438-0.002L3.057,31.798c-0.698,0.396-0.942,1.283-0.546,1.981
		c0.268,0.472,0.759,0.736,1.265,0.736c0.243,0,0.489-0.061,0.716-0.189L50.264,8.342l45.471,25.981
		c0.694,0.396,1.582,0.157,1.982-0.541C98.115,33.086,97.873,32.199,97.176,31.8z"/>
</g>
</svg>
