<svg width="27" height="18" viewBox="0 0 27 18" fill="none" xmlns="http://www.w3.org/2000/svg">
<g clip-path="url(#clip0_228_1332)">
<path d="M26.5153 1.76494V11.3166C26.5027 11.3328 26.483 11.3473 26.4779 11.3646C26.167 12.4699 25.1605 13.0901 23.6661 13.0905C18.3752 13.0912 13.0842 13.0912 7.79329 13.0897C7.59158 13.0897 7.38684 13.0878 7.18968 13.0605C5.82575 12.8715 4.94308 12.04 4.94207 10.9435C4.94005 8.01564 4.94005 5.08781 4.94207 2.15959C4.94257 0.877849 6.09823 0.00110937 7.78015 0.00034232C9.75174 -0.000424731 11.7228 0.00034232 13.6944 0.00034232C17.0476 0.00034232 20.4009 -0.000808256 23.7541 0.00110937C24.9926 0.00187642 26.0108 0.554537 26.3824 1.4213C26.4309 1.53483 26.4708 1.65065 26.5153 1.76533V1.76494ZM24.3319 7.83078C24.3445 7.76405 24.3531 7.74027 24.3531 7.71649C24.3536 5.83722 24.3552 3.95832 24.3516 2.07905C24.3511 1.7799 24.1438 1.64068 23.7192 1.64068C18.3959 1.63991 13.0721 1.63991 7.74881 1.64068C7.29129 1.64068 7.10324 1.7845 7.10324 2.13044C7.10222 4.61032 7.10273 7.09019 7.10324 9.57007C7.10324 9.62261 7.11284 9.67516 7.12396 9.78599C7.22962 9.6905 7.28472 9.63297 7.34994 9.58311C8.24221 8.90427 9.13549 8.22658 10.0298 7.54889C10.5469 7.15731 11.1622 7.01272 11.878 7.13737C12.2592 7.20372 12.5686 7.36441 12.8385 7.57497C13.2354 7.88448 13.6348 8.19168 14.0453 8.50962C14.1545 8.41182 14.2308 8.34432 14.3061 8.27605C15.5245 7.16652 16.7408 6.05583 17.9611 4.94744C18.8519 4.13781 20.1339 4.12669 21.0429 4.91944C21.4023 5.23278 21.7557 5.54996 22.1121 5.86521C22.8406 6.50992 23.5691 7.15463 24.3324 7.8304L24.3319 7.83078Z" fill="url(#paint0_linear_228_1332)"/>
<path d="M0.631836 12.5056C1.1035 11.3087 1.57517 10.1117 2.04734 8.91507C2.43306 7.93708 2.8203 6.95986 3.20704 5.98225C3.22726 5.93048 3.25102 5.87947 3.32331 5.83459C3.32331 5.90133 3.32331 5.96844 3.32331 6.03518C3.32331 7.748 3.30713 9.46083 3.32887 11.1737C3.34454 12.4013 4.05533 13.3456 5.47588 13.9561C6.11286 14.23 6.8105 14.3216 7.541 14.3209C12.5777 14.3166 17.6143 14.3186 22.651 14.3186H23.0205C22.9932 14.3937 22.9745 14.4513 22.9513 14.5076C22.652 15.2321 22.3537 15.9566 22.0524 16.6807C21.6374 17.6779 20.3831 18.201 19.0435 17.9295C14.9577 17.1014 10.873 16.2699 6.78826 15.4396C5.39146 15.1558 3.99618 14.8674 2.59736 14.5889C1.55343 14.3811 0.901792 13.8936 0.672784 13.0886C0.668235 13.0721 0.645991 13.0583 0.631836 13.0433C0.631836 12.8642 0.631836 12.6851 0.631836 12.5064L0.631836 12.5056Z" fill="url(#paint1_linear_228_1332)"/>
<path d="M10.327 5.72377C9.14103 5.71993 8.17343 4.98318 8.17849 4.08765C8.18354 3.18368 9.16732 2.44808 10.3614 2.45575C11.5408 2.46303 12.5119 3.21321 12.4963 4.10414C12.4806 5.00734 11.5155 5.7276 10.327 5.72377Z" fill="url(#paint2_linear_228_1332)"/>
</g>
<defs>
<linearGradient id="paint0_linear_228_1332" x1="4.94055" y1="6.54548" x2="26.5153" y2="6.54548" gradientUnits="userSpaceOnUse">
<stop stop-color="#26BBFE"/>
<stop offset="1" stop-color="#1BC88B"/>
</linearGradient>
<linearGradient id="paint1_linear_228_1332" x1="0.631836" y1="11.9177" x2="23.0205" y2="11.9177" gradientUnits="userSpaceOnUse">
<stop stop-color="#26BBFE"/>
<stop offset="1" stop-color="#1BC88B"/>
</linearGradient>
<linearGradient id="paint2_linear_228_1332" x1="8.17847" y1="4.08974" x2="12.4965" y2="4.08974" gradientUnits="userSpaceOnUse">
<stop stop-color="#26BBFE"/>
<stop offset="1" stop-color="#1BC88B"/>
</linearGradient>
<clipPath id="clip0_228_1332">
<rect width="25.8835" height="18" fill="white" transform="translate(0.631836)"/>
</clipPath>
</defs>
</svg>
